<mxfile host="app.diagrams.net" modified="2023-03-09T08:56:38.379Z" agent="5.0 (Macintosh; Intel Mac OS X 10_15_7) AppleWebKit/605.1.15 (KHTML, like Gecko) Version/15.1 Safari/605.1.15" etag="_YTwEHYYef9sPvIULE7c" version="21.0.2" type="github">
  <diagram name="Страница 1" id="IKsaFZdsxYNKWXKrZ-dd">
    <mxGraphModel dx="954" dy="647" grid="1" gridSize="10" guides="1" tooltips="1" connect="1" arrows="1" fold="1" page="1" pageScale="1" pageWidth="827" pageHeight="1169" math="0" shadow="0">
      <root>
        <mxCell id="0" />
        <mxCell id="1" parent="0" />
        <mxCell id="oUwSweANlWVkf3pkpjq4-1" value="Студент" style="whiteSpace=wrap;html=1;align=center;" vertex="1" parent="1">
          <mxGeometry x="30" y="280" width="100" height="40" as="geometry" />
        </mxCell>
        <mxCell id="oUwSweANlWVkf3pkpjq4-2" value="Зачетная книжка" style="whiteSpace=wrap;html=1;align=center;" vertex="1" parent="1">
          <mxGeometry x="220" y="280" width="100" height="40" as="geometry" />
        </mxCell>
        <mxCell id="oUwSweANlWVkf3pkpjq4-3" value="Сдача дисциплины&amp;nbsp;" style="whiteSpace=wrap;html=1;align=center;" vertex="1" parent="1">
          <mxGeometry x="400" y="280" width="100" height="40" as="geometry" />
        </mxCell>
        <mxCell id="oUwSweANlWVkf3pkpjq4-4" value="Зачет" style="whiteSpace=wrap;html=1;align=center;" vertex="1" parent="1">
          <mxGeometry x="570" y="150" width="100" height="40" as="geometry" />
        </mxCell>
        <mxCell id="oUwSweANlWVkf3pkpjq4-5" value="Экзаменатор" style="whiteSpace=wrap;html=1;align=center;" vertex="1" parent="1">
          <mxGeometry x="720" y="270" width="100" height="40" as="geometry" />
        </mxCell>
        <mxCell id="oUwSweANlWVkf3pkpjq4-6" value="Экзамен" style="whiteSpace=wrap;html=1;align=center;" vertex="1" parent="1">
          <mxGeometry x="570" y="390" width="100" height="40" as="geometry" />
        </mxCell>
        <mxCell id="oUwSweANlWVkf3pkpjq4-8" value="" style="fontSize=12;html=1;endArrow=ERmandOne;startArrow=ERmandOne;rounded=0;exitX=1;exitY=0.5;exitDx=0;exitDy=0;" edge="1" parent="1" source="oUwSweANlWVkf3pkpjq4-1">
          <mxGeometry width="100" height="100" relative="1" as="geometry">
            <mxPoint x="390" y="390" as="sourcePoint" />
            <mxPoint x="220" y="300" as="targetPoint" />
          </mxGeometry>
        </mxCell>
        <mxCell id="oUwSweANlWVkf3pkpjq4-10" value="" style="fontSize=12;html=1;endArrow=ERoneToMany;rounded=0;exitX=1;exitY=0.5;exitDx=0;exitDy=0;" edge="1" parent="1" source="oUwSweANlWVkf3pkpjq4-2">
          <mxGeometry width="100" height="100" relative="1" as="geometry">
            <mxPoint x="390" y="390" as="sourcePoint" />
            <mxPoint x="400" y="300" as="targetPoint" />
          </mxGeometry>
        </mxCell>
        <mxCell id="oUwSweANlWVkf3pkpjq4-11" value="" style="fontSize=12;html=1;endArrow=ERoneToMany;rounded=0;exitX=1;exitY=0.5;exitDx=0;exitDy=0;entryX=0;entryY=0.5;entryDx=0;entryDy=0;" edge="1" parent="1" source="oUwSweANlWVkf3pkpjq4-3" target="oUwSweANlWVkf3pkpjq4-4">
          <mxGeometry width="100" height="100" relative="1" as="geometry">
            <mxPoint x="330" y="310" as="sourcePoint" />
            <mxPoint x="410" y="310" as="targetPoint" />
          </mxGeometry>
        </mxCell>
        <mxCell id="oUwSweANlWVkf3pkpjq4-12" value="" style="fontSize=12;html=1;endArrow=ERoneToMany;rounded=0;entryX=0;entryY=0.5;entryDx=0;entryDy=0;" edge="1" parent="1" target="oUwSweANlWVkf3pkpjq4-6">
          <mxGeometry width="100" height="100" relative="1" as="geometry">
            <mxPoint x="500" y="300" as="sourcePoint" />
            <mxPoint x="600" y="180" as="targetPoint" />
          </mxGeometry>
        </mxCell>
        <mxCell id="oUwSweANlWVkf3pkpjq4-13" value="" style="fontSize=12;html=1;endArrow=ERoneToMany;rounded=0;exitX=0;exitY=0.5;exitDx=0;exitDy=0;entryX=1;entryY=0.5;entryDx=0;entryDy=0;" edge="1" parent="1" source="oUwSweANlWVkf3pkpjq4-5" target="oUwSweANlWVkf3pkpjq4-4">
          <mxGeometry width="100" height="100" relative="1" as="geometry">
            <mxPoint x="510" y="310" as="sourcePoint" />
            <mxPoint x="600" y="180" as="targetPoint" />
          </mxGeometry>
        </mxCell>
        <mxCell id="oUwSweANlWVkf3pkpjq4-14" value="" style="fontSize=12;html=1;endArrow=ERoneToMany;rounded=0;exitX=0;exitY=0.5;exitDx=0;exitDy=0;entryX=1;entryY=0.5;entryDx=0;entryDy=0;" edge="1" parent="1" source="oUwSweANlWVkf3pkpjq4-5" target="oUwSweANlWVkf3pkpjq4-6">
          <mxGeometry width="100" height="100" relative="1" as="geometry">
            <mxPoint x="730" y="300" as="sourcePoint" />
            <mxPoint x="700" y="180" as="targetPoint" />
          </mxGeometry>
        </mxCell>
        <mxCell id="oUwSweANlWVkf3pkpjq4-15" value="Номер зачетки" style="text;html=1;align=center;verticalAlign=middle;resizable=0;points=[];autosize=1;strokeColor=none;fillColor=none;" vertex="1" parent="1">
          <mxGeometry x="120" y="275" width="110" height="30" as="geometry" />
        </mxCell>
        <mxCell id="oUwSweANlWVkf3pkpjq4-16" value="Номер зачетки" style="text;html=1;align=center;verticalAlign=middle;resizable=0;points=[];autosize=1;strokeColor=none;fillColor=none;" vertex="1" parent="1">
          <mxGeometry x="304" y="310" width="110" height="30" as="geometry" />
        </mxCell>
        <mxCell id="oUwSweANlWVkf3pkpjq4-17" value="Название дисциплины" style="text;html=1;align=center;verticalAlign=middle;resizable=0;points=[];autosize=1;strokeColor=none;fillColor=none;rotation=-60;" vertex="1" parent="1">
          <mxGeometry x="450" y="200" width="150" height="30" as="geometry" />
        </mxCell>
        <mxCell id="oUwSweANlWVkf3pkpjq4-18" value="Название дисциплины" style="text;html=1;align=center;verticalAlign=middle;resizable=0;points=[];autosize=1;strokeColor=none;fillColor=none;rotation=60;" vertex="1" parent="1">
          <mxGeometry x="450" y="360" width="150" height="30" as="geometry" />
        </mxCell>
        <mxCell id="oUwSweANlWVkf3pkpjq4-19" value="ID" style="text;html=1;align=center;verticalAlign=middle;resizable=0;points=[];autosize=1;strokeColor=none;fillColor=none;" vertex="1" parent="1">
          <mxGeometry x="690" y="210" width="40" height="30" as="geometry" />
        </mxCell>
        <mxCell id="oUwSweANlWVkf3pkpjq4-20" value="ID" style="text;html=1;align=center;verticalAlign=middle;resizable=0;points=[];autosize=1;strokeColor=none;fillColor=none;" vertex="1" parent="1">
          <mxGeometry x="690" y="340" width="40" height="30" as="geometry" />
        </mxCell>
      </root>
    </mxGraphModel>
  </diagram>
</mxfile>
